<svg id="Layer_1" data-name="Layer 1" xmlns="http://www.w3.org/2000/svg" viewBox="0 0 501.94 71.64"><defs><style>.cls-1{fill:none;stroke:#231f20;stroke-miterlimit:10;}</style></defs><title>Untitled-2</title><path class="cls-1" d="M94.18,358.24c.68,0,.39,4.41-1,4.41-2.74,0-12.32-.1-18.49-.1-6.84,0-14.47.1-17.21.1-.69,0-.39-4.21,1-4.41,6.16-.68,8.6-1.27,8.8-5.38.68-15.06.68-29.73,0-44.11-.2-4.11-2.74-5.38-9.59-5.38-.68,0-.39-4.3,1-4.3,2.74,0,9.2.29,16,.29,5.48,0,13.21-1.17,19.37-1,11,.3,21.71,4.9,21.71,15.17,0,14.37-12.61,23.27-24.94,24-2.74.19-5.67-.39-6.36-1.37-1.36-2.06.88-6.26,1.47-6a13.64,13.64,0,0,0,7.83.49c6.84-1.37,10.95-6.65,10.27-14.18-.79-8.22-8.12-11.93-15.65-11.25-4.11.39-7.83,1.76-8.32,5.87-1.37,10.95-1,27.19.39,42.25C80.88,357.46,84.59,358.24,94.18,358.24Z" transform="translate(-56.64 -293.68)"/><path class="cls-1" d="M119.21,342.89c-1.36-16,9.88-27.58,24.36-28.07s24.74,8.31,25.72,21.81c1.37,16.14-9.88,27.68-24.35,28.17S120.19,356.39,119.21,342.89Zm38.64-3.72c-1.57-10.86-8.41-18.19-17.51-16.82-7.82,1.17-11.25,8.61-9.78,18.29,1.57,10.95,8.12,18,17.21,16.53C155.6,356,159.22,348.76,157.85,339.17Z" transform="translate(-56.64 -293.68)"/><path class="cls-1" d="M198.05,335.26a111.49,111.49,0,0,0,0,18.09c.29,4.11,2.25,4.89,9.78,4.89.68,0,.39,4.41-1,4.41l-14.67-.1c-4.11,0-10,.1-12.72.1-.68,0-.39-3.62,1-3.92,3.43-.68,5.67-1.27,5.87-5.38a208.37,208.37,0,0,0,0-24.74c-.2-4.11-3.23-4.89-6.65-4.89-.69,0-.39-4,1-4.21,3.42-.59,11.73-2.35,14.47-4.4.39-.29,3.23.1,3.23,1.47a35.48,35.48,0,0,0-.39,6.16c0,3.42,0,4.4-.78,6.45l.29.2a11.46,11.46,0,0,1,2.45-3.91c3.42-4.11,8.51-8.32,13.3-9.69,5.28-1.46,11.73-.29,11.73,5.87,0,7.53-10.66,8.42-10.27,6.36.69-3.42-1.76-5.38-4.49-4.79C206.75,323.91,202.16,328.41,198.05,335.26Z" transform="translate(-56.64 -293.68)"/><path class="cls-1" d="M268.86,359.22c-3.42,3.43-11.25,5.48-18.1,4.89-7.53-.68-10.56-6.84-10.75-13.69-.3-8.51-.3-17.31,0-25.82-7.54,0-7.44.49-7.83.19s-.2-6.06,1-6.55c5.48-2.05,11.83-6.36,14.57-13.2.3-.69,4.4.09,4.4,1.46,0,.69-.39.39-.68,10.76a141.55,141.55,0,0,0,17.41-1c2.74-.39.39,7.83-1,7.83H251.35c-.1,8.31,0,16.82.39,25,.2,3.42.78,6.16,4.89,6.84s9.78.1,13.21-2.64C271.3,352.18,270.91,357.17,268.86,359.22Z" transform="translate(-56.64 -293.68)"/><path class="cls-1" d="M342.31,353.35c.78,4,4.5,4.89,12.72,4.89.68,0,.39,4.41-1,4.41l-18.59-.1c-5.47,0-13.4.1-16.13.1-.69,0-.4-3.72,1-3.92,6.17-.68,8.61-1.27,8.81-5.38.68-15.06.68-29.53,0-44.6-.2-4.11-2.74-5.38-9.59-5.38-.68,0-.39-4.3,1-4.3,4.79,0,12.23.29,21.81.29,10.37,0,22.79-.29,28.27-.29.58,0,.78.2,1.07.88a40.84,40.84,0,0,1,2.45,13.6c0,2.73-4.89,1.27-4.89,1,0-4.1-3.52-7-9.69-7.63a114,114,0,0,0-14.18-.19c-2,.1-2.64,1.27-3,3.91a83.4,83.4,0,0,0-.49,15.55c.1,1.37.59,1.76,1.47,2a38.75,38.75,0,0,0,10.66,0c4-.69,4.6-2.74,5.18-7.53.2-1.37,4.21-1.67,4.21-1,0,2.05-.29,6.26-.29,12.42s.29,9.2.29,11.25c0,1.37-4.4,1.66-4.4,1,0-5.48-1-8.12-5-8.81a40.29,40.29,0,0,0-10.76,0c-.88.2-1.27.59-1.37,2C341.53,342.2,341.43,348.56,342.31,353.35Z" transform="translate(-56.64 -293.68)"/><path class="cls-1" d="M377.52,342.89c-1.37-16,9.88-27.58,24.36-28.07s24.74,8.31,25.72,21.81c1.37,16.14-9.88,27.68-24.36,28.17S378.5,356.39,377.52,342.89Zm38.64-3.72c-1.57-10.86-8.42-18.19-17.51-16.82-7.83,1.17-11.25,8.61-9.78,18.29,1.56,10.95,8.11,18,17.21,16.53C413.91,356,417.52,348.76,416.16,339.17Z" transform="translate(-56.64 -293.68)"/><path class="cls-1" d="M456.45,302q-1,25.68,0,51.35c.2,4.11,2.45,4.89,5.87,4.89.68,0,.39,4.41-1,4.41-2,0-6.55-.1-10.66-.1s-10,.1-12.72.1c-.68,0-.39-3.62,1-3.92,3.43-.68,5.68-1.27,5.87-5.38q1-22.59,0-45.18c-.19-4.11-3.23-4.89-6.65-4.89-.68,0-.39-3.92,1-4.21,2.74-.59,11.64-2.35,14.38-4.4.39-.3,3.22.1,3.22,1.47C456.74,296.82,456.65,296.53,456.45,302Z" transform="translate(-56.64 -293.68)"/><path class="cls-1" d="M491.37,322.74c-.49,10.17-.49,20.44,0,30.61.19,4.11,2.44,4.89,5.87,4.89.68,0,.39,4.41-1,4.41-2.06,0-6.65-.1-10.76-.1s-10,.1-12.72.1c-.68,0-.39-3.62,1-3.92,3.42-.68,5.58-1.27,5.87-5.38a203.52,203.52,0,0,0,0-24.45c-.29-4.11-3.23-4.89-6.65-4.89-.69,0-.39-3.91,1-4.2,2.74-.59,11.73-2.35,14.47-4.41.39-.29,3.23.1,3.23,1.47C491.66,317.56,491.66,317.26,491.37,322.74Zm-11.64-14.09-.2-.19a14.09,14.09,0,0,1-1.27-6.85c.29-4.69,2.45-7.43,7.53-7.43,4.5,0,7.63,2.93,7.63,7.43s-2.93,7.14-7.63,7.44A24.59,24.59,0,0,1,479.73,308.65Z" transform="translate(-56.64 -293.68)"/><path class="cls-1" d="M507.89,342.89c-1.36-16,9.88-27.58,24.36-28.07S557,323.13,558,336.63c1.37,16.14-9.88,27.68-24.35,28.17S508.87,356.39,507.89,342.89Zm38.64-3.72C545,328.31,538.12,321,529,322.35c-7.82,1.17-11.25,8.61-9.78,18.29,1.57,10.95,8.12,18,17.22,16.53C544.28,356,547.9,348.76,546.53,339.17Z" transform="translate(-56.64 -293.68)"/></svg>